<?xml version="1.0" encoding="UTF-8" standalone="no"?>
<!-- Created with Inkscape (http://www.inkscape.org/) -->

<svg
   width="800"
   height="800"
   viewBox="0 0 211.66667 211.66667"
   version="1.1"
   id="svg1"
   inkscape:version="1.4.2 (f4327f4, 2025-05-13)"
   sodipodi:docname="person.svg"
   xmlns:inkscape="http://www.inkscape.org/namespaces/inkscape"
   xmlns:sodipodi="http://sodipodi.sourceforge.net/DTD/sodipodi-0.dtd"
   xmlns="http://www.w3.org/2000/svg"
   xmlns:svg="http://www.w3.org/2000/svg">
  <sodipodi:namedview
     id="namedview1"
     pagecolor="#ffffff"
     bordercolor="#000000"
     borderopacity="0.25"
     inkscape:showpageshadow="2"
     inkscape:pageopacity="0.0"
     inkscape:pagecheckerboard="0"
     inkscape:deskcolor="#d1d1d1"
     inkscape:document-units="mm"
     inkscape:zoom="0.68862935"
     inkscape:cx="396.43968"
     inkscape:cy="445.08704"
     inkscape:window-width="1920"
     inkscape:window-height="991"
     inkscape:window-x="-9"
     inkscape:window-y="-9"
     inkscape:window-maximized="1"
     inkscape:current-layer="layer1" />
  <defs
     id="defs1" />
  <g
     inkscape:label="Layer 1"
     inkscape:groupmode="layer"
     id="layer1">
    <path
       id="path1"
       style="fill:#000000;stroke-width:0.254366"
       d="M 107.30024,14.952643 A 100,100 0 0 0 7.3001294,114.95275 100,100 0 0 0 48.429401,195.78761 59.745792,81.069862 0 0 1 107.42065,127.56025 59.745792,81.069862 0 0 1 166.39276,195.62534 100,100 0 0 0 207.30034,114.95275 100,100 0 0 0 107.30024,14.952643 Z m -0.70953,24.592815 A 37.845406,39.19017 0 0 1 144.43596,78.735831 37.845406,39.19017 0 0 1 106.59071,117.92569 37.845406,39.19017 0 0 1 68.744957,78.735831 37.845406,39.19017 0 0 1 106.59071,39.545458 Z" />
  </g>
</svg>
